<svg width="3276" height="3283" viewBox="0 0 3276 3283" fill="none" xmlns="http://www.w3.org/2000/svg">
<path d="M1185.34 2480.12C1283.44 2282.83 1130.72 2053.13 978.472 1824.14C956.755 1791.47 935.039 1758.81 914.063 1726.26C732.27 1443.91 552.531 1152.71 677.71 840.188C815.405 602.668 1315.83 365.149 1628.74 524.562C1475.38 525.57 1200.97 738.426 1142.63 855.759C1043.86 1054.4 1135.35 1185.39 1274.86 1385.16C1288.12 1404.15 1301.82 1423.75 1315.83 1444.1C1352.44 1497.5 1392.01 1550.14 1431.47 1602.64C1622.01 1856.12 1810.12 2106.36 1652.11 2424.14C1355.92 2985.31 890.516 2740.33 627.638 2352.81C765.331 2455.12 1118.12 2615.32 1185.34 2480.12ZM2008.04 2457.28C2074.06 2261.74 2100.25 2086.77 1932.28 1826.1C1910.86 1792.83 1888.66 1759.58 1866.44 1726.29C1700.11 1477.12 1532.2 1225.59 1673.24 941.932C1804.29 678.341 2142.3 452.657 2417.7 665.173C2264.27 666.297 2170.7 768 2112.36 885.328C2013.48 1084.2 2146.07 1274.24 2292.82 1484.59C2306.5 1504.18 2320.29 1523.96 2334.04 1543.94C2347.97 1564.25 2362.04 1584.55 2376.11 1604.85C2577.54 1895.5 2777.71 2184.34 2555.39 2457.28C2292.52 2752.84 1791.8 3002.86 1378.71 2840.34C1525.58 2852.39 1942.02 2652.83 2008.04 2457.28Z" fill="white"/>
<path d="M1185.34 2480.12C1283.44 2282.83 1130.72 2053.13 978.472 1824.14C956.755 1791.47 935.039 1758.81 914.063 1726.26C732.27 1443.91 552.531 1152.71 677.71 840.188C815.405 602.668 1315.83 365.149 1628.74 524.562C1475.38 525.57 1200.97 738.426 1142.63 855.759C1043.86 1054.4 1135.35 1185.39 1274.86 1385.16C1288.12 1404.15 1301.82 1423.75 1315.83 1444.1C1352.44 1497.5 1392.01 1550.14 1431.47 1602.64C1622.01 1856.12 1810.12 2106.36 1652.11 2424.14C1355.92 2985.31 890.516 2740.33 627.638 2352.81C765.331 2455.12 1118.12 2615.32 1185.34 2480.12ZM2008.04 2457.28C2074.06 2261.74 2100.25 2086.77 1932.28 1826.1C1910.86 1792.83 1888.66 1759.58 1866.44 1726.29C1700.11 1477.12 1532.2 1225.59 1673.24 941.932C1804.29 678.341 2142.3 452.657 2417.7 665.173C2264.27 666.297 2170.7 768 2112.36 885.328C2013.48 1084.2 2146.07 1274.24 2292.82 1484.59C2306.5 1504.18 2320.29 1523.96 2334.04 1543.94C2347.97 1564.25 2362.04 1584.55 2376.11 1604.85C2577.54 1895.5 2777.71 2184.34 2555.39 2457.28C2292.52 2752.84 1791.8 3002.86 1378.71 2840.34C1525.58 2852.39 1942.02 2652.83 2008.04 2457.28Z" stroke="black"/>
<path d="M1646.8 2914.16C2354.45 2912.36 2926.66 2337.3 2924.86 1629.74C2923.05 922.173 2347.93 350.04 1640.27 351.841C932.621 353.643 360.415 928.697 362.217 1636.26C364.019 2343.83 939.146 2915.96 1646.8 2914.16Z" fill="#315F68"/>
<path d="M1214.6 2495.46C1326.69 2270.01 1111.28 2002.25 943.318 1741.59C761.522 1459.25 524.393 1178.97 684.27 857.419C815.331 593.832 1312.73 437.602 1658 539.896C1504.63 540.904 1230.21 753.763 1171.87 871.092C1063.72 1088.61 1183.71 1225.02 1345.07 1459.43C1558.49 1770.69 1872.09 2055.88 1681.36 2439.48C1385.17 3000.65 943.318 2743.16 644.372 2380.63C769.549 2476.12 1147.37 2630.65 1214.6 2495.46ZM2037.29 2472.62C2103.31 2277.08 2129.5 2102.1 1961.53 1841.44C1779.74 1559.09 1542.61 1278.82 1702.49 957.265C1833.54 693.675 2128.29 576.968 2473.74 679.203C2320.31 680.327 2199.95 783.333 2141.61 900.661C2033.52 1118.07 2202.04 1324.92 2363.29 1559.28C2576.77 1870.42 2759.9 2143.12 2572.13 2472.62C2309.25 2768.17 1821.06 3018.19 1407.96 2855.68C1554.83 2867.73 1971.27 2668.16 2037.29 2472.62Z" fill="#010101" fill-opacity="0.2"/>
<path d="M2160.94 1343.45V1343.46C2168.06 1356.03 2173.49 1369.69 2177.27 1384.23C2180.99 1398.87 2182.85 1413.86 2182.86 1429.12C2182.79 1444.39 2180.95 1459.38 2177.18 1473.93C2173.4 1488.56 2167.93 1502.12 2160.74 1514.7L2055.59 1701.62H2040.73L1932.6 1516.93C1925.04 1504 1919.32 1490.08 1915.39 1475.09C1911.38 1460.1 1909.43 1444.74 1909.43 1428.94C1909.42 1413.23 1911.34 1397.79 1915.33 1382.8C1919.25 1367.8 1924.95 1353.89 1932.5 1341.05L2040.41 1156.26H2055.56L2160.94 1343.45ZM2161.39 1515.06C2168.6 1502.43 2174.11 1488.81 2177.9 1474.11L2161.39 1515.06Z" fill="white" stroke="#315F68" stroke-width="0.2"/>
<path d="M1095.23 1659.69L1095.88 1659.34L1469.36 2365.39L1484.2 2366.01L1571.86 2224.3C1583.1 2205.99 1591.96 2186.15 1598.27 2164.68C1604.6 2143.3 1608.19 2121.27 1608.98 2098.67C1609.85 2076.09 1607.89 2053.82 1603.22 2031.98C1598.49 2010.23 1591.17 1989.81 1581.34 1970.71L1211.56 1261.86L1196.72 1261.24L1106.67 1401.07L1095.23 1659.69ZM1095.23 1659.69L1095.88 1659.34C1085.62 1639.96 1078.1 1619.16 1073.24 1596.87C1068.37 1574.58 1066.42 1551.96 1067.38 1528.83C1068.35 1505.71 1072.19 1483.24 1078.89 1461.43C1085.6 1439.62 1094.84 1419.53 1106.67 1401.07L1095.23 1659.69Z" fill="white"/>
<path d="M1095.88 1659.34L1095.23 1659.69L1106.67 1401.07M1095.88 1659.34L1469.36 2365.39L1484.2 2366.01L1571.86 2224.3C1583.1 2205.99 1591.96 2186.15 1598.27 2164.68C1604.6 2143.3 1608.19 2121.27 1608.98 2098.67C1609.85 2076.09 1607.89 2053.82 1603.22 2031.98C1598.49 2010.23 1591.17 1989.81 1581.34 1970.71L1211.56 1261.86L1196.72 1261.24L1106.67 1401.07M1095.88 1659.34C1085.62 1639.96 1078.1 1619.16 1073.24 1596.87C1068.37 1574.58 1066.42 1551.96 1067.38 1528.83C1068.35 1505.71 1072.19 1483.24 1078.89 1461.43C1085.6 1439.62 1094.84 1419.53 1106.67 1401.07" stroke="#315F68" stroke-width="0.2"/>
<path d="M1576.83 1131.28H1591.61L1990.73 1824.13C2001.34 1842.8 2009.51 1862.9 2015.15 1884.43C2020.71 1906.06 2023.61 1928.23 2023.69 1950.84C2023.76 1973.45 2021.16 1995.6 2015.74 2017.23C2010.25 2038.94 2002.3 2059.14 1991.85 2077.89L1910.16 2223.13H1895.31L1492.69 1533.24C1481.64 1514.29 1473.25 1493.84 1467.46 1471.77C1461.67 1449.69 1458.78 1427.18 1458.78 1404.03C1458.78 1380.88 1461.67 1358.27 1467.46 1336.2C1473.25 1314.13 1481.64 1293.68 1492.69 1274.74L1576.83 1131.28Z" fill="white"/>
<path d="M1492.69 1533.24L1895.31 2223.13H1910.16L1991.85 2077.89C2002.3 2059.14 2010.25 2038.94 2015.74 2017.23C2021.16 1995.6 2023.76 1973.45 2023.69 1950.84C2023.61 1928.23 2020.71 1906.06 2015.15 1884.43C2009.51 1862.9 2001.34 1842.8 1990.73 1824.13L1591.61 1131.28H1576.83L1492.69 1274.74C1481.64 1293.68 1473.25 1314.13 1467.46 1336.2C1461.67 1358.27 1458.78 1380.88 1458.78 1404.03C1458.78 1427.18 1461.67 1449.69 1467.46 1471.77C1473.25 1493.84 1481.64 1514.29 1492.69 1533.24ZM1492.69 1533.24L1492.05 1533.61" stroke="#315F68" stroke-width="0.2"/>
</svg>
